<svg width="168" height="168" viewBox="0 0 168 168" fill="none" xmlns="http://www.w3.org/2000/svg">
<path d="M166.129 55.0688L156.813 45.7516C154.745 43.684 151.541 43.3011 149.027 44.7944C141.567 49.2168 131.791 48.2213 125.378 41.8078C118.964 35.3942 117.969 25.6175 122.391 18.1574C123.884 15.643 123.501 12.4394 121.434 10.3718L112.934 1.87142C110.439 -0.623806 106.399 -0.623806 103.91 1.87142L69.087 36.6961L71.7927 39.4019C73.286 40.8952 73.286 43.3202 71.7927 44.8135C71.0461 45.5602 70.0633 45.9367 69.087 45.9367C68.1106 45.9367 67.1279 45.5602 66.3813 44.8135L63.6755 42.1077L1.87136 103.914C-0.623785 106.409 -0.623785 110.449 1.87136 112.938L10.365 121.432C12.4326 123.499 15.6361 123.882 18.1504 122.389C25.6103 117.966 35.3866 118.962 41.8 125.375C48.2133 131.789 49.2088 141.566 44.7865 149.026C43.2932 151.54 43.6761 154.744 45.7437 156.811L55.0606 166.129C57.5557 168.624 61.5952 168.624 64.0839 166.129L125.888 104.322L123.182 101.617C121.689 100.123 121.689 97.6982 123.182 96.2049C124.676 94.7116 127.101 94.7116 128.594 96.2049L131.3 98.9107L166.123 64.0861C168.625 61.5972 168.625 57.5577 166.129 55.0688ZM92.4558 65.4709C91.7092 66.2175 90.7264 66.5941 89.7501 66.5941C88.7673 66.5941 87.791 66.2175 87.0443 65.4709L81.8818 60.3081C80.3885 58.8148 80.3885 56.3898 81.8818 54.8901C83.375 53.3968 85.8 53.3968 87.2996 54.8901L92.4622 60.0529C93.9491 61.5526 93.9491 63.9776 92.4558 65.4709ZM113.106 86.1283C112.359 86.8749 111.377 87.2514 110.4 87.2514C109.418 87.2514 108.441 86.8813 107.695 86.1283L102.532 80.9655C101.039 79.4722 101.039 77.0472 102.532 75.5475C104.025 74.0542 106.45 74.0542 107.95 75.5475L113.112 80.7103C114.606 82.2099 114.606 84.635 113.106 86.1283Z" fill="black" fill-opacity="0.2"/>
</svg>
