<svg width="262" height="102" viewBox="0 0 262 102" fill="none" xmlns="http://www.w3.org/2000/svg">
<path d="M205.211 81.8117C205.211 76.1284 207.044 71.591 210.711 68.1993C214.378 64.716 219.236 62.5619 225.286 61.7369L243.161 59.1244C246.552 58.6661 248.248 57.0161 248.248 54.1744C248.248 50.6911 247.056 47.8495 244.673 45.6495C242.29 43.4495 238.715 42.3495 233.948 42.3495C229.548 42.3495 226.065 43.587 223.498 46.062C220.932 48.4453 219.419 51.6536 218.961 55.6869L206.586 52.7995C207.228 46.4745 210.115 41.3412 215.248 37.3996C220.382 33.3663 226.523 31.3496 233.673 31.3496C243.023 31.3496 249.944 33.6413 254.436 38.2246C258.927 42.7162 261.173 48.4911 261.173 55.5494V88.6867C261.173 92.6283 261.448 96.2491 261.998 99.5491H249.348C248.89 96.7991 248.661 93.82 248.661 90.6117C246.827 93.545 244.123 96.1116 240.548 98.3116C237.065 100.512 232.665 101.612 227.348 101.612C220.84 101.612 215.523 99.6866 211.398 95.8366C207.273 91.895 205.211 87.22 205.211 81.8117ZM229.136 90.7492C234.911 90.7492 239.54 89.1908 243.023 86.0742C246.506 82.9576 248.248 78.0076 248.248 71.2243V68.1993L228.036 71.2243C225.102 71.6826 222.765 72.7368 221.023 74.3868C219.282 76.0368 218.411 78.2826 218.411 81.1242C218.411 83.6909 219.373 85.9367 221.298 87.8617C223.315 89.7867 225.927 90.7492 229.136 90.7492Z" fill="black"/>
<path d="M177.786 12.5125V33.4123H192.086V45.0997H177.786V79.4744C177.786 82.5911 178.473 84.8827 179.848 86.3494C181.315 87.816 183.698 88.5494 186.998 88.5494C188.923 88.5494 190.619 88.3661 192.086 87.9994V98.9993C189.886 99.8243 186.952 100.237 183.286 100.237C177.602 100.237 173.111 98.5868 169.811 95.2868C166.511 91.9869 164.861 87.3577 164.861 81.3994V45.0997H152.211V33.4123H155.786C159.178 33.4123 161.698 32.4956 163.348 30.6623C165.09 28.7373 165.961 26.2623 165.961 23.2374V12.5125H177.786Z" fill="black"/>
<path d="M94.3241 59.6744H130.486C130.303 54.7244 128.653 50.6911 125.536 47.5745C122.42 44.3662 118.02 42.762 112.336 42.762C107.203 42.762 102.987 44.4578 99.6866 47.8495C96.3866 51.1495 94.5991 55.0911 94.3241 59.6744ZM132.411 76.8618L143.549 80.7117C141.624 86.8534 138.049 91.895 132.824 95.8366C127.599 99.6866 121.274 101.612 113.849 101.612C104.591 101.612 96.7074 98.4491 90.1991 92.1242C83.7825 85.7075 80.5742 77.0909 80.5742 66.2744C80.5742 56.1911 83.6909 47.8495 89.9241 41.2495C96.1574 34.6496 103.582 31.3496 112.199 31.3496C122.191 31.3496 129.982 34.5121 135.574 40.837C141.165 47.0703 143.961 55.4578 143.961 65.9993C143.961 67.6493 143.87 69.0243 143.686 70.1243H93.9116C94.0033 75.9909 95.9283 80.8034 99.6866 84.5617C103.537 88.32 108.257 90.1992 113.849 90.1992C123.291 90.1992 129.478 85.7534 132.411 76.8618Z" fill="black"/>
<path d="M69.2995 24.1998L57.1996 28.4623C56.5579 24.2457 54.4954 20.4415 51.0121 17.0499C47.5288 13.5666 42.7163 11.8249 36.5747 11.8249C31.1664 11.8249 26.6748 13.3832 23.0998 16.4999C19.5249 19.6165 17.7374 23.4665 17.7374 28.0498C17.7374 31.6248 18.7915 34.6497 20.8998 37.1247C23.0998 39.5997 26.2165 41.2955 30.2498 42.2122L44.8247 45.3747C52.8913 47.1163 59.1245 50.4163 63.5245 55.2746C67.9245 60.0412 70.1245 65.862 70.1245 72.737C70.1245 80.6202 67.0078 87.4035 60.7745 93.0868C54.5413 98.7701 46.4288 101.612 36.4372 101.612C25.529 101.612 16.9582 98.7701 10.7249 93.0868C4.5833 87.3119 1.00833 80.4827 0 72.5995L12.9249 68.4745C13.4749 74.3411 15.7665 79.2911 19.7999 83.3244C23.8332 87.3577 29.3331 89.3743 36.2997 89.3743C42.7163 89.3743 47.6663 87.9077 51.1496 84.9744C54.6329 82.0411 56.3746 78.3286 56.3746 73.837C56.3746 70.1703 55.1371 67.0078 52.6621 64.3495C50.1871 61.5995 46.5663 59.7204 41.7997 58.7121L27.9123 55.6871C20.6707 54.1288 14.8957 51.058 10.5874 46.4747C6.27912 41.8914 4.12497 36.0706 4.12497 29.0123C4.12497 21.3123 7.24161 14.5749 13.4749 8.79993C19.7999 2.93331 27.4081 0 36.2997 0C46.2913 0 53.9454 2.42915 59.262 7.28745C64.5787 12.1457 67.9245 17.7832 69.2995 24.1998Z" fill="black"/>
</svg>
