<svg width="350" height="219" viewBox="0 0 350 219" fill="none" xmlns="http://www.w3.org/2000/svg">
<rect width="350" height="219" rx="14" fill="black" fill-opacity="0.06"/>
<path d="M257.129 81.0688L247.813 71.7516C245.745 69.684 242.541 69.3011 240.027 70.7944C232.567 75.2168 222.791 74.2213 216.378 67.8078C209.964 61.3942 208.969 51.6175 213.391 44.1574C214.884 41.643 214.501 38.4394 212.434 36.3718L203.934 27.8714C201.439 25.3762 197.399 25.3762 194.91 27.8714L160.087 62.6961L162.793 65.4019C164.286 66.8952 164.286 69.3202 162.793 70.8135C162.046 71.5602 161.063 71.9367 160.087 71.9367C159.111 71.9367 158.128 71.5602 157.381 70.8135L154.676 68.1077L92.8714 129.914C90.3762 132.409 90.3762 136.449 92.8714 138.938L101.365 147.432C103.433 149.499 106.636 149.882 109.15 148.389C116.61 143.966 126.387 144.962 132.8 151.375C139.213 157.789 140.209 167.566 135.786 175.026C134.293 177.54 134.676 180.744 136.744 182.811L146.061 192.129C148.556 194.624 152.595 194.624 155.084 192.129L216.888 130.322L214.182 127.617C212.689 126.123 212.689 123.698 214.182 122.205C215.676 120.712 218.101 120.712 219.594 122.205L222.3 124.911L257.123 90.0861C259.625 87.5972 259.625 83.5577 257.129 81.0688ZM183.456 91.4709C182.709 92.2175 181.726 92.5941 180.75 92.5941C179.767 92.5941 178.791 92.2175 178.044 91.4709L172.882 86.3081C171.388 84.8148 171.388 82.3898 172.882 80.8901C174.375 79.3968 176.8 79.3968 178.3 80.8901L183.462 86.0529C184.949 87.5526 184.949 89.9776 183.456 91.4709ZM204.106 112.128C203.359 112.875 202.377 113.251 201.4 113.251C200.418 113.251 199.441 112.881 198.695 112.128L193.532 106.966C192.039 105.472 192.039 103.047 193.532 101.548C195.025 100.054 197.45 100.054 198.95 101.548L204.112 106.71C205.606 108.21 205.606 110.635 204.106 112.128Z" fill="black" fill-opacity="0.2"/>
</svg>
