<svg width="20" height="21" viewBox="0 0 20 21" fill="none" xmlns="http://www.w3.org/2000/svg">
<path fill-rule="evenodd" clip-rule="evenodd" d="M18.894 6.93454L10.447 0.217539C10.2703 0.0766956 10.051 0 9.825 0C9.59902 0 9.37972 0.0766956 9.203 0.217539L0.755 6.93454C0.519551 7.12182 0.329384 7.3598 0.198664 7.63076C0.067943 7.90173 3.6043e-05 8.19869 0 8.49954V17.9175C0 18.5541 0.252856 19.1645 0.702944 19.6146C1.15303 20.0647 1.76348 20.3175 2.4 20.3175H7.825V15.5655C7.825 15.3003 7.93036 15.046 8.11789 14.8584C8.30543 14.6709 8.55978 14.5655 8.825 14.5655H10.825C11.0902 14.5655 11.3446 14.6709 11.5321 14.8584C11.7196 15.046 11.825 15.3003 11.825 15.5655V20.3175H17.249C17.8855 20.3175 18.496 20.0647 18.9461 19.6146C19.3961 19.1645 19.649 18.5541 19.649 17.9175V8.50054C19.649 8.19969 19.5811 7.90273 19.4503 7.63176C19.3196 7.3608 19.1294 7.12182 18.894 6.93454Z" fill="black"/>
</svg>
