<svg width="20" height="20" viewBox="0 0 20 20" fill="none" xmlns="http://www.w3.org/2000/svg">
<g clip-path="url(#clip0_9308_2451)">
<path d="M0 1.41963C0 0.701659 0.58203 0.119629 1.3 0.119629L18.7 0.119629C19.418 0.119629 20 0.701659 20 1.41963V3.81963C20 4.5376 19.418 5.11963 18.7 5.11963L1.3 5.11963C0.582028 5.11963 0 4.5376 0 3.81963L0 1.41963Z" fill="#8E8E92"/>
<path d="M20.001 10.7C20.001 11.418 19.4189 12 18.701 12L1.30099 12C0.583021 12 0.00099378 11.418 0.000993842 10.7L0.000994052 8.3C0.000994115 7.58203 0.583024 7 1.30099 7L18.701 7C19.4189 7 20.001 7.58203 20.001 8.3L20.001 10.7Z" fill="#8E8E92"/>
<path d="M0 15.2148C0 14.4968 0.58203 13.9148 1.3 13.9148H10.7C11.418 13.9148 12 14.4968 12 15.2148V18.9148H0L0 15.2148Z" fill="#8E8E92"/>
</g>
<defs>
<clipPath id="clip0_9308_2451">
<rect width="20" height="20" fill="white"/>
</clipPath>
</defs>
</svg>
